<?xml version="1.0" encoding="utf-8"?>
<!-- Generator: Adobe Illustrator 22.0.1, SVG Export Plug-In . SVG Version: 6.00 Build 0)  -->
<svg version="1.1" id="Capa_1" xmlns="http://www.w3.org/2000/svg" xmlns:xlink="http://www.w3.org/1999/xlink" x="0px" y="0px"
	 viewBox="0 0 117.5 21.3" style="enable-background:new 0 0 117.5 21.3;" xml:space="preserve">
<style type="text/css">
	.st0{fill:#FFFFFF;}
</style>
<g>
	<path class="st0" d="M11,20.1c-0.2,0-0.4-0.2-0.5-0.5L4.3,4.8L2.7,20.3c0,0.4-0.2,0.6-0.6,0.6H0.6C0.2,21,0,20.8,0,20.3L2.2,0.9
		c0-0.2,0.1-0.3,0.2-0.4s0.3-0.2,0.5-0.2H5c0.3,0,0.5,0.2,0.6,0.5l6,14.8l6.1-14.8c0-0.2,0.1-0.3,0.2-0.4s0.2-0.1,0.3-0.1h2.2
		c0.2,0,0.3,0.1,0.5,0.2c0.1,0.1,0.2,0.3,0.2,0.4l2.2,19.5c0,0.4-0.2,0.6-0.6,0.6h-1.4c-0.4,0-0.6-0.2-0.6-0.6L19,4.8l-6.1,14.8
		c-0.2,0.3-0.3,0.5-0.6,0.5H11z"/>
	<path class="st0" d="M28.5,20.4c-0.1,0.2-0.2,0.3-0.3,0.4c-0.1,0.1-0.3,0.1-0.5,0.1h-1.5c-0.4,0-0.6-0.2-0.6-0.5c0-0.1,0-0.1,0-0.2
		v-0.1V20l8-19.3c0,0,0-0.1,0.1-0.2c0-0.1,0.1-0.1,0.1-0.2s0.1-0.1,0.2-0.1c0.1,0,0.2-0.1,0.4-0.1h0.9c0.1,0,0.3,0,0.3,0.1
		c0.1,0,0.2,0.1,0.2,0.1c0,0.1,0.1,0.1,0.1,0.2S36,0.6,36,0.7L44,20v0.1v0.1v0.1c0,0.3-0.2,0.5-0.6,0.5H42c-0.2,0-0.3,0-0.5-0.1
		s-0.2-0.2-0.3-0.4l-1.5-3.8H30c-0.3,0.8-0.6,1.6-0.9,2.2C28.8,19.5,28.6,20.1,28.5,20.4z M31.1,13.9h7.6l-3.8-9.5L31.1,13.9z"/>
	<path class="st0" d="M54.6,0.9c0.1-0.2,0.2-0.4,0.3-0.5s0.3-0.1,0.5-0.1h1.5c0.3,0,0.5,0,0.6,0.1s0.1,0.3,0,0.6
		c-1.4,3.3-2.8,6.5-4.1,9.7s-2.7,6.5-4.1,9.7c-0.2,0.3-0.4,0.5-0.7,0.5h-1.7c-0.2,0-0.4-0.1-0.5-0.2s-0.1-0.3,0-0.4L54.6,0.9z"/>
	<path class="st0" d="M71.1,0c1,0,1.9,0.1,2.8,0.4s1.8,0.6,2.5,1.1c0.8,0.5,1.5,1,2.2,1.7c0.6,0.6,1.2,1.4,1.7,2.2S81.1,7,81.4,8
		c0.3,0.9,0.4,1.9,0.4,2.8c0,1-0.1,1.9-0.4,2.8c-0.2,0.9-0.6,1.8-1.1,2.5c-0.5,0.8-1,1.5-1.7,2.1c-0.6,0.6-1.4,1.2-2.2,1.7
		c-0.8,0.5-1.6,0.8-2.5,1.1c-0.9,0.3-1.9,0.4-2.8,0.4c-1,0-1.9-0.1-2.8-0.4s-1.7-0.6-2.5-1.1s-1.5-1-2.1-1.7
		c-0.6-0.6-1.2-1.4-1.7-2.1c-0.5-0.8-0.8-1.6-1.1-2.5s-0.4-1.8-0.4-2.8s0.1-1.9,0.4-2.8c0.3-0.9,0.6-1.8,1.1-2.5
		c0.5-0.8,1-1.5,1.7-2.2c0.7-0.7,1.4-1.2,2.2-1.7c0.8-0.5,1.6-0.8,2.5-1.1S70.1,0,71.1,0z M63.1,10.6c0,0.7,0.1,1.4,0.3,2.1
		c0.2,0.7,0.5,1.3,0.8,1.9c0.3,0.6,0.8,1.1,1.2,1.6c0.5,0.5,1,0.9,1.6,1.2c0.6,0.3,1.2,0.6,1.9,0.8c0.7,0.2,1.4,0.3,2.1,0.3
		s1.4-0.1,2.1-0.3c0.7-0.2,1.3-0.5,1.9-0.8s1.1-0.8,1.6-1.2c0.5-0.5,0.9-1,1.2-1.6c0.3-0.6,0.6-1.2,0.8-1.9s0.3-1.4,0.3-2.1
		c0-1.1-0.2-2.1-0.6-3.1s-1-1.8-1.7-2.5S75,3.7,74.1,3.3c-1-0.4-2-0.6-3.1-0.6c-0.7,0-1.4,0.1-2.1,0.3S67.6,3.5,67,3.8
		S65.9,4.6,65.4,5c-0.5,0.5-0.9,1-1.2,1.6c-0.3,0.6-0.6,1.2-0.8,1.9C63.2,9.2,63.1,9.9,63.1,10.6z"/>
	<path class="st0" d="M100.9,21c-0.2,0-0.4-0.1-0.5-0.3L88.3,4.4v16c0,0.4-0.2,0.6-0.6,0.6h-1.4c-0.4,0-0.6-0.2-0.6-0.6V0.9
		c0-0.2,0.1-0.3,0.2-0.5s0.3-0.2,0.4-0.2h1.9c0.2,0,0.4,0.1,0.6,0.3l11.9,15.8V0.8c0.1-0.3,0.3-0.5,0.6-0.5h1.4
		c0.2,0,0.3,0.1,0.5,0.2s0.2,0.3,0.2,0.4v19.5c0,0.4-0.2,0.6-0.7,0.6H100.9z"/>
	<path class="st0" d="M107.6,0.9c0-0.2,0.1-0.3,0.2-0.4s0.3-0.2,0.5-0.2h1.4c0.2,0,0.3,0.1,0.4,0.2s0.2,0.3,0.2,0.4v19.5
		c0,0.4-0.2,0.6-0.6,0.6h-1.4c-0.4,0-0.6-0.2-0.6-0.6L107.6,0.9L107.6,0.9z"/>
	<path class="st0" d="M117.5,20.3c0,0.4-0.2,0.6-0.6,0.6h-1.4c-0.4,0-0.6-0.2-0.6-0.6v-1.4c0-0.2,0.1-0.3,0.2-0.4s0.3-0.2,0.4-0.2
		h1.4c0.2,0,0.4,0.1,0.5,0.2s0.2,0.3,0.2,0.4L117.5,20.3L117.5,20.3z"/>
</g>
</svg>
