<?xml version="1.0" encoding="utf-8"?>
<!-- Generator: Adobe Illustrator 22.0.1, SVG Export Plug-In . SVG Version: 6.00 Build 0)  -->
<svg version="1.1" id="Capa_1" xmlns="http://www.w3.org/2000/svg" xmlns:xlink="http://www.w3.org/1999/xlink" x="0px" y="0px"
	 viewBox="0 0 68.6 70.2" style="enable-background:new 0 0 68.6 70.2;" xml:space="preserve">
<style type="text/css">
	.st0{fill:#1F140F;}
</style>
<g>
	<g>
		<g>
			<path class="st0" d="M23.9,43.9c-0.6-0.6-1-1.4-1.1-2.3l-0.3-0.3c-0.8,0.1-1.5,0.4-2.2,0.8l-0.1,0.3l0.5,2.3
				c-1.2-0.7-2.3-1.5-3.4-2.3c-0.2-0.3-0.5-0.6-0.8-0.8l-0.1,0.1c-1-0.9-1.8-1.8-2.5-2.9c-1.6-2.5-2.3-6.2-0.4-8.9
				c0.1-0.1,0.2-0.2,0.3-0.4c0,0,0,0,0,0l0.4,0c0.3-0.5,0.8-1,1.4-1.4c0.9-0.3,2-0.2,3-0.1c0.8,0.1,1.7,0.2,2.5,0.1l0.1-0.5
				c-1.1-0.8-2.6-1-4.1-0.7c-0.7,0.1-1.3,0.4-1.8,0.7c0,0,0,0,0,0c-0.6,0.2-1.1,0.6-1.6,1c-0.7-1.5-0.4-3.5,0-5.2
				c0.4-2.1,0.9-4.3,1.7-6.4c-0.1-0.3-0.2-0.6-0.2-0.9c-0.9,2.4-1.5,4.9-2,7.2c-0.4,1.9-0.8,4.1,0.2,5.7c-0.2,0.2-0.3,0.4-0.4,0.5
				c-2,3-1.3,6.9,0.4,9.5c0.8,1.2,1.7,2.2,2.8,3.1c0.4,0.7,0.9,1.3,1.5,1.8c0.5,1,0.8,2.2,1.1,3.3c1.5,7,1.2,14.2-1.1,21l0.5,0.2
				c2.3-6.8,2.7-14.2,1.1-21.2c-0.2-0.8-0.4-1.7-0.7-2.6c0.7,0.4,1.4,0.6,2.2,0.8c0.1,0,0.1,0.1,0.2,0.1l0.2,0.7l0.2,0.2
				c1.2,0.1,2.2-0.7,2.7-1.6c0,0,0,0,0-0.1c0,0,0.1,0,0.1,0.1l0.4-0.2l0.2-2.8l-0.5,0C24.2,42.5,24.1,43.2,23.9,43.9z M20.2,27.7
				c-0.4,0-0.9-0.1-1.3-0.1c-0.4,0-0.7-0.1-1.1-0.1C18.6,27.3,19.4,27.4,20.2,27.7z M23.6,44.5c-0.4,0.7-1.1,1.3-2,1.3c0,0,0,0,0,0
				l-0.2-0.8L21.4,45l-0.6-2.5c0.5-0.3,1-0.4,1.5-0.6c0.1,1,0.6,1.9,1.4,2.5C23.7,44.4,23.6,44.5,23.6,44.5z"/>
			<path class="st0" d="M68.5,28c0.3-1.8-0.1-3.6-1.3-4.6c0,0-0.1,0-0.1-0.1c-0.2-0.4-0.4-0.8-0.5-1.1c-0.4-1.1-0.5-2.3-0.6-3.5
				c-0.1-1.2-0.2-2.4-0.6-3.5c-0.5-1.4-1.5-2.7-2.4-3.8C60.1,8,56.9,4.1,52.5,2c-0.1,0.1-0.2,0.3-0.4,0.4c4.3,2,7.5,5.9,10.4,9.4
				c0.9,1.1,1.8,2.3,2.3,3.6c0.4,1.1,0.5,2.2,0.6,3.3c0.1,1.2,0.2,2.5,0.7,3.6c0.1,0.1,0.1,0.3,0.2,0.4c-0.5-0.2-1.1-0.3-1.7-0.3
				c-0.8,0.1-1.5,0.4-1.9,1c-0.8,1.1-0.6,2.6-0.2,3.6c0.3,0.8,0.8,1.5,1.3,2.1c0.2,0.3,0.4,0.5,0.6,0.8c1.2,1.7,1.9,3.7,2.7,5.7
				c0.8,2.2,0.8,3.7-0.2,4.4c-0.1,0.1-0.2,0.2-0.4,0.2l0,0l-0.7,0.3c-0.2,0-0.3,0.1-0.5,0.1c-0.7,0.2-1.4,0.4-2,0.9l0.3,0.4l2.4-1
				l0.1,0c-0.9,2.2-1.4,4.5-1.5,6.9c0,0.5,0,0.9,0,1.4c0,1.3,0,2.6-0.4,3.8c-0.2,0.7-0.5,1.3-0.8,2c-0.5,1-0.9,2-1,3.2
				c0,0.4,0,0.9,0,1.3c0,0.7,0.1,1.5-0.2,2.1c-0.5,1.4-2.2,2.1-3.8,2.6l-5.7,1.8l-0.2,0.3l1,3.6l0.5-0.2l-1-3.4l5.5-1.7
				c1.7-0.5,3.5-1.2,4.1-2.9c0.3-0.8,0.3-1.5,0.2-2.3c0-0.4,0-0.8,0-1.3c0.1-1,0.5-2,1-3c0.3-0.7,0.6-1.4,0.8-2.1
				c0.4-1.3,0.4-2.6,0.4-3.9c0-0.5,0-0.9,0-1.4c0.1-2.5,0.7-4.9,1.7-7.2c0.2-0.1,0.3-0.2,0.4-0.3c1.1-0.9,1.2-2.6,0.3-5.1
				c-0.4-1.1-0.9-2.3-1.4-3.4l0.4,0.2C67.4,31,68.2,29.6,68.5,28z M63.1,23.9c0.3-0.5,0.9-0.8,1.6-0.8c0.7-0.1,1.5,0.2,2,0.6
				c0,0,0,0.1,0.1,0.1c0.6,1.1,1.1,2.2,0.9,3.2c-1.3-1.3-3.1-2.1-5-2.1C62.8,24.6,62.9,24.2,63.1,23.9z M62.9,25.5
				c1.8,0.1,3.6,0.9,4.7,2.3l0.4-0.1c0,0.1,0,0.1,0,0.2c-0.2,1-0.6,1.9-1.1,2.9c0-0.7-0.3-1.5-0.8-2.2c-0.7-1.1-1.9-1.8-3.1-1.9
				L62.9,25.5z M66.1,32.1c-0.4-0.8-0.8-1.5-1.3-2.2c-0.2-0.3-0.4-0.6-0.6-0.8c-0.4-0.6-0.8-1.1-1.1-1.7c1,0.1,1.9,0.7,2.5,1.6
				C66.3,29.9,66.5,31.1,66.1,32.1z"/>
		</g>
		<g>
			<path class="st0" d="M22.8,39.6c-0.1,0-0.1,0-0.2,0L17.7,39c-0.3,0-0.7-0.1-1-0.3c-0.4-0.3-0.5-0.7-0.6-1c-0.2-0.6-0.5-1.3-0.2-2
				c0.1-0.4,0.4-0.8,0.6-1c0.5-0.6,1-1.3,1.7-1.6c0.6-0.3,1.3-0.3,1.9,0c-0.1-1.4-0.7-2.7-1.7-3.6c-0.6-0.6-1.6-1.1-2.4-0.7
				c-0.7,0.3-1,1.2-1.2,2L14,33.3c-0.3,1-0.5,2,0,2.8l-0.4,0.3c-0.7-1-0.3-2.5-0.1-3.3l0.7-2.6c0.3-0.9,0.6-1.9,1.5-2.4
				c1-0.5,2.2,0.1,3,0.8c1.2,1.2,1.9,2.9,1.9,4.6l0.3,0c0.1,0.9,0.7,1.6,1.2,2.4c0.7,0.9,1.4,1.9,1.3,3.1c0,0.1-0.1,0.3-0.2,0.5
				C23.1,39.5,22.9,39.6,22.8,39.6z M19.1,33.3c-0.3,0-0.5,0.1-0.8,0.2c-0.6,0.3-1.1,0.9-1.5,1.5c-0.2,0.3-0.4,0.5-0.5,0.9
				c-0.2,0.5,0,1.1,0.2,1.7c0.1,0.3,0.2,0.6,0.4,0.8c0.2,0.1,0.4,0.2,0.7,0.2l4.9,0.5c0,0,0.1,0,0.2,0l0,0c0,0,0,0,0-0.1
				c0.1-1-0.5-1.8-1.2-2.7c-0.6-0.8-1.2-1.6-1.3-2.5l-0.3,0.1C19.9,33.5,19.5,33.3,19.1,33.3z"/>
		</g>
		<g>
			<path class="st0" d="M58.8,41c-0.2,0-0.4,0-0.6-0.1c-0.1,0-0.2-0.1-0.2-0.2c-0.4-0.1-0.8-0.2-1.1-0.3c-0.3-0.1-0.7-0.3-0.9-0.7
				c-0.1-0.2-0.2-0.4-0.3-0.7c-0.1-0.9,0.2-1.9,0.8-2.6c0.6-0.7,1.6-1.1,2.5-1.1c0.8,0,1.6,0.4,2.3,0.7c0.6,0.3,1.2,0.5,1.8,0.7
				L63,37.3c-0.7-0.1-1.3-0.4-1.9-0.7c-0.7-0.3-1.4-0.7-2.1-0.7c0,0-0.1,0-0.1,0c-0.8,0-1.5,0.3-2,0.9c-0.5,0.6-0.8,1.4-0.6,2.2
				c0,0.2,0.1,0.4,0.2,0.5c0.2,0.2,0.4,0.4,0.7,0.5c0.2,0.1,0.4,0.2,0.7,0.2c0-0.3,0.1-0.6,0.2-0.8c0.3-0.4,0.7-0.6,1.4-0.8
				c2.2-0.4,4.2,0.7,5.1,1.4l-0.3,0.4c-0.4-0.3-1.1-0.7-1.8-1l0.2,0.3c-0.2,0.2-0.5,0.3-0.7,0.5c-0.8,0.5-1.7,0.8-2.6,0.9
				C59,41,58.9,41,58.8,41z M58.3,40.2c1.1,0.1,2.2-0.1,3.2-0.6c0.2-0.1,0.4-0.2,0.5-0.3c-0.8-0.3-1.7-0.4-2.6-0.2
				c-0.5,0.1-0.8,0.3-1,0.5C58.3,39.8,58.3,40,58.3,40.2C58.3,40.2,58.3,40.2,58.3,40.2z"/>
		</g>
		<g>
			<path class="st0" d="M58.3,23.8l-0.5-0.1c0.1-0.4,0.1-0.9,0-1.4c0,0.5-0.1,0.9-0.4,1.3l-0.2,0.1c-0.8,0.1-1.6-0.4-2.2-0.8
				l-0.3-0.2c-2.3-1.4-5-1.7-7.8-2c-1.3-0.1-2.8-0.1-3.6,0.8l-0.5-0.3c0.1-0.1,0.1-0.3,0-0.4c-0.2,0.1-0.4,0.2-0.6,0.4
				c-0.3,0.4-0.6,0.8-0.9,1.2l-0.5-0.3c0.2-0.5,0.6-1,1-1.3c0.6-0.8,1.4-1.5,2.3-1.9c1-0.5,2-0.7,3-0.8c1.3-0.2,2.7-0.2,4.5-0.3
				c1.4,0,2.9,0,4.1,0.7C57.6,19.6,58.7,21.8,58.3,23.8z M45.8,20.2c0.4,0,0.8,0,1.1,0.1c2.7,0.3,5.6,0.6,8,2.1l0.3,0.2
				c0.6,0.3,1.1,0.7,1.7,0.7c0,0,0,0,0,0c0.4-0.6,0.3-1.5-0.2-2.1l0.4-0.4c-0.4-0.7-1-1.3-1.7-1.7c-1.2-0.6-2.5-0.6-3.9-0.6
				c-1.8,0-3.1,0.1-4.4,0.3c-0.9,0.1-1.9,0.3-2.8,0.7c-0.5,0.2-0.9,0.6-1.3,0.9l0,0c0.1,0.1,0.2,0.2,0.2,0.4
				C44.1,20.4,44.9,20.2,45.8,20.2z"/>
		</g>
		<g>
			<path class="st0" d="M57.9,60.3c-0.7,0-1.5-0.3-2-0.8l0.4-0.4c0.5,0.5,1.4,0.5,2,0.2c0.6-0.4,0.9-1.2,0.8-1.9l0.5-0.1
				c0.2,0.8-0.1,1.7-0.7,2.2c0.6-0.4,0.9-1.1,0.9-1.8c-0.1-1.1-1.2-1.7-1.6-1.9c-1-0.5-2.2-0.7-3.3-0.5c-0.4,0.1-0.7,0.1-1.1,0.3
				L53.6,55c0,0,0,0,0,0l0,0c0.4-0.1,0.8-0.2,1.2-0.3c1.9-0.3,3.9,0.3,5.4,1.6c0.3,0.3,0.5,0.5,0.8,0.5c0.2,0,0.4-0.2,0.5-0.4
				c0.9-1,1.5-2.2,2-3.5c0.1-0.4,0.2-0.7,0.1-1c0-0.1-0.1-0.1-0.1-0.2l-0.2,0c0-0.1-0.1-0.2-0.1-0.3c0,0,0,0,0,0c0,0,0,0-0.1-0.1
				L63,51.4c-2.8,1.1-6.2,0.7-8.7-1c-0.2-0.1-0.4-0.3-0.6-0.4c-0.5-0.3-0.9-0.6-1.4-0.9c-0.5,0-0.9-0.1-1.4-0.3v0
				c-0.1,0-0.2,0-0.4,0.1l-0.1-0.5c0.2-0.1,0.5-0.1,0.7-0.1c1.5-0.8,3.3-1.1,5.2-1.4c1.8-0.3,3.9-0.5,5.4,0.6c1,0.7,1.5,1.8,1.8,3.1
				c0,0.1,0.1,0.1,0.1,0.2c0.1,0.2,0.2,0.4,0.2,0.6c0.1,0.1,0.2,0.3,0.3,0.5c0.2,0.5,0,1-0.1,1.4c-0.5,1.3-1.2,2.6-2.1,3.6
				c-0.2,0.3-0.5,0.6-0.9,0.6c-0.3,0-0.6-0.1-0.8-0.3c0.1,0.2,0.1,0.3,0.1,0.5c0.1,1-0.5,2.1-1.5,2.5C58.6,60.3,58.2,60.3,57.9,60.3
				z M53.3,49c0.3,0.2,0.5,0.3,0.7,0.5c0.2,0.1,0.4,0.3,0.6,0.4c2.3,1.5,5.4,1.9,8,1l0-0.1c-2.2-1.7-5.2-2.5-7.9-2
				c-0.2,0-0.4,0.1-0.6,0.1C53.9,48.9,53.6,49,53.3,49z M56.3,48.1c2.3,0,4.6,0.7,6.4,2.1l0.1-0.1c-0.3-0.9-0.8-1.7-1.5-2.2
				c-1.3-1-3.3-0.8-5-0.5c-1.6,0.3-3,0.5-4.3,1.1c0.1,0.1,0.3,0.1,0.4,0.2c0.5,0,1-0.1,1.6-0.2c0.2,0,0.4-0.1,0.6-0.1
				C55.2,48.2,55.7,48.1,56.3,48.1z"/>
		</g>
		<g>
			<path class="st0" d="M53.1,66.9c-1.3-0.1-2.4-0.6-3.5-1.1c-8.6-3.6-16.5-9.1-23-15.8l0.4-0.4c6.4,6.7,14.3,12.1,22.8,15.6
				c1.1,0.4,2.2,0.9,3.4,1L53.1,66.9z"/>
		</g>
		<g>
			<path class="st0" d="M53.5,69.6L53,69.4c0.2-0.8-0.6-1.5-1-1.8c-1-0.8-2.2-1.3-3.4-1.9c-1-0.5-2.1-1-3.1-1.6
				c-0.2-0.1-0.3-0.2-0.5-0.4c-0.3-0.2-0.6-0.5-1-0.7c-0.5-0.3-1-0.5-1.5-0.7L42,62.3c-4.6-1.7-8.3-4.9-12-8
				c-0.7-0.6-1.5-1.4-1.2-2.4c0.1-0.2,0.1-0.3,0.2-0.5c0.1-0.1,0.1-0.3,0.2-0.4c0.1-0.5-0.1-1-0.4-1.4c-0.6-1.1-1.1-2.3-1.5-3.5
				c0,0.1-0.1,0.2-0.1,0.3c-0.2,2.3-0.6,4.6-1.1,6.9c0.1,0.2,0.1,0.3,0.2,0.5c0.1,0.4,0.3,0.8,0.4,1.2c0.1,0.6,0,1.2-0.1,1.8l-1,6.5
				c-0.1,0.8-0.2,1.6-0.4,2.4l-0.5-0.1l0.4-2.4c0.1-1.2,0.1-2.4-0.1-3.6c0-0.1-0.1-0.3-0.1-0.4c-0.1-0.4-0.2-0.7-0.2-1.1
				c-0.1-0.8,0.2-1.7,0.4-2.4l0-0.1c0.2-0.7,0.4-1.5,0.6-2.2c0,0,0,0,0,0c-0.6-1.9,0.1-3.8,0.7-5.6c0.2-0.5,0.3-0.9,0.4-1.4
				c0.1-0.5,0.1-1,0.1-1.5c-1.2-3.6-1.9-7.4-1.9-11.3c-0.1-0.4-0.2-0.8-0.6-1l0.1-0.5c0.2,0,0.4,0,0.5,0c0-0.2,0-0.4,0-0.6l0.1,0
				l0.1-0.3c3.4,0.8,6.5,2.8,8.6,5.5c0.8,1,1.5,2.1,2.1,3.2c0.9,1.6,1.9,3.2,3.3,4.4c1,1,2.3,1.7,3.5,2.5c1.5,1,3.1,2,4.3,3.4
				c0.2-0.7,0.6-1.5,1.1-2.4c0.2-0.3,0.3-0.5,0.5-0.8l0.2-0.6c0.1-0.3,0.2-0.6,0.4-0.9c0.2-0.2,0.5-0.3,0.7-0.4
				c0.2-0.1,0.5-0.2,0.7-0.3c1.3-1.2,2.8-2,4.4-2.3c1.6-0.3,3.2-0.2,4.8-0.1c0.5,0,1,0.1,1.6,0.2c0.3,0,0.6,0,0.9,0
				c0.5-0.1,1.2-0.4,1.4-0.9l0.1-0.2l0.5,0.2c0,0.1,0,0.1-0.1,0.2l-0.4,1c0.6,0.5,1.1,1.1,1.4,1.8l-0.5,0.3
				c-0.8-1.1-2.1-1.5-3.5-1.8c-0.2,0-0.5,0-0.7-0.1c-0.2,0-0.3,0-0.5,0c-3.2-0.2-6.3,1-9.2,2.2c-0.6,0.6-1.3,1.2-1.8,2l-1.3,4.5
				l-0.5,0c0-0.1-0.1-0.1-0.1-0.2c0,0,0,0,0,0.1l-0.5,0.2c-1.3-1.3-2.7-2.6-4.2-3.6c-0.4-0.3-0.8-0.5-1.3-0.7
				c-0.6-0.3-1.2-0.7-1.8-1.1c-2-1.4-3.5-3.6-4.7-5.5l-0.5-0.7c-1.1-1.7-2.2-3.5-3.7-5c-1.4-1.3-2.9-2.2-4.5-2.5c0,0.3,0,0.7,0,1.1
				C26.1,34,26,34.4,26,34.7c0,0.1,0,0.2-0.1,0.2l0.9,3.8c0.2,0.9,0.4,1.8,0.5,2.7c0.1,0.4,0.2,0.9,0.3,1.3c0.1,0.8,0,1.6-0.1,2.3
				c0.5,1.4,1.1,2.8,1.8,4.1c0.3,0.5,0.6,1.1,0.4,1.8c-0.1,0.2-0.1,0.4-0.2,0.5c-0.1,0.1-0.1,0.3-0.2,0.4c-0.2,0.5,0.2,1.1,1.1,1.9
				c3.6,3,7.3,6.2,11.8,7.9l0.4,0.1c0.5,0.2,1.1,0.4,1.6,0.7c0.4,0.2,0.7,0.5,1,0.7c0.2,0.1,0.3,0.2,0.5,0.4c0.9,0.6,2,1.1,3,1.6
				c1.2,0.5,2.4,1.1,3.5,1.9C52.9,67.6,53.8,68.5,53.5,69.6z M25.9,54.2c-0.1,0.5-0.3,1-0.4,1.5l0,0.1c-0.2,0.7-0.4,1.5-0.4,2.3
				c0,0.3,0.1,0.7,0.2,1c0,0.1,0.1,0.3,0.1,0.4c0,0.2,0.1,0.4,0.1,0.6l0.5-3.4c0.1-0.5,0.2-1.1,0.1-1.6C26.1,54.8,26,54.5,25.9,54.2
				z M26.3,49c-0.3,0.9-0.5,1.8-0.5,2.7C26,50.9,26.2,50,26.3,49z M29.3,33.3c0.6,0.4,1.2,0.9,1.8,1.4c1.5,1.5,2.6,3.3,3.7,5.1
				l0.5,0.7c1.2,1.8,2.6,3.9,4.5,5.3c0.5,0.4,1.1,0.7,1.7,1.1c0.4,0.2,0.9,0.5,1.3,0.8c1.4,0.9,2.7,2.1,3.9,3.3c0-0.1,0-0.1,0-0.2
				c-1.1-1.5-2.7-2.5-4.4-3.6c-1.2-0.8-2.5-1.6-3.5-2.6c-1.4-1.3-2.4-3-3.4-4.6c-0.7-1.1-1.3-2.2-2.1-3.2
				C32.3,35.4,30.9,34.2,29.3,33.3z M47.3,50.6c0,0.1,0.1,0.1,0.1,0.2l0.6-2C47.7,49.4,47.5,50,47.3,50.6z M55.8,42.8
				c-0.2,0-0.5,0.1-0.7,0.1c-0.7,0.2-1.5,0.4-2.2,0.8C53.9,43.4,54.8,43.1,55.8,42.8z M26.1,39.8c0.2,1.1,0.5,2.3,0.8,3.4
				c0-0.5,0-0.9,0-1.4c0,0,0-0.1,0-0.1c-0.2-0.6-0.4-1.1-0.7-1.7C26.1,39.9,26.1,39.8,26.1,39.8z M62.9,42.9c0.1,0,0.3,0.1,0.4,0.2
				l-0.1-0.3l0,0C63.1,42.8,63,42.8,62.9,42.9z M25.7,36.4c0,0.8,0.3,1.6,0.6,2.4L25.7,36.4z M25.5,33.4l0.1,0.4c0-0.1,0-0.2,0-0.2
				c0.1-0.4,0-0.7,0-1.1c0,0-0.1,0-0.1,0C25.5,32.8,25.5,33.1,25.5,33.4z M26.1,32c0.6,0.1,1.2,0.3,1.9,0.5c-0.6-0.3-1.3-0.5-2-0.7
				C26,31.9,26,31.9,26.1,32z"/>
		</g>
		<g>
			<path class="st0" d="M35.5,58.4c-2.5-3-3.5-6.9-4.5-10.7c-0.8-3-1.6-6-3.1-8.6l0.5-0.3c1.6,2.7,2.4,5.8,3.2,8.8
				c0.9,3.3,1.8,6.7,3.7,9.5l-2.5-13.8l0.5-0.1c1.7,4.4,3.1,9.1,3.9,13.8L36.6,57c-0.7-3.6-1.6-7.2-2.8-10.7L36,58.1L35.5,58.4z"/>
		</g>
		<g>
			<path class="st0" d="M47.9,65.1c-1.9-3.6-3.7-7.3-5.2-11.1c0.5,2.9,1.2,5.8,1.9,8.7c0.2,0.6,0.4,1.2,0.5,1.7l-0.5,0.1
				c-0.2-0.6-0.3-1.1-0.4-1.7c-0.5-1.3-1.1-2.5-1.8-3.8c-1.2-2.2-2.5-4.6-2.3-7.1l0.5,0c-0.1,2.4,1,4.6,2.3,6.9
				c0.2,0.4,0.4,0.8,0.6,1.2c-0.7-2.9-1.2-5.8-1.7-8.6l0.5-0.1c1.6,4.4,3.5,8.7,5.7,12.9c0.2-1.6,0.1-3.3-0.4-4.8l0.5-0.1
				c0.5,1.9,0.6,3.9,0.2,5.9L47.9,65.1z"/>
		</g>
		<g>
			<path class="st0" d="M56.4,66.2c-1.6-2.5-2.7-5.3-3.5-8.2c-0.6-1.8-1.2-3.6-1.6-5.4c-0.1,0.9-0.3,1.9-0.6,2.9
				c-0.7,3.3-1.4,6.9-0.6,8.9l-0.5,0.2c-1.9-3.6-3.6-7.3-5.2-11c-0.4-0.8-0.8-1.7-1.1-2.6l0.5-0.2c0.3,0.9,0.7,1.7,1.1,2.6
				c0.3,0.7,0.7,1.3,1.1,1.9l-0.2,0.1c1.1,2.5,2.2,4.9,3.4,7.3c-0.1-2.1,0.5-4.8,1-7.3c0.3-1.7,0.7-3.2,0.7-4.3l0.5,0
				c0.2,1,0.5,1.9,0.7,2.9l0.5-0.2c1.1,1.7,2.4,3.3,3.8,4.8l0,0L57,59l-0.4,0.4c-1.4-1.4-2.7-2.9-3.8-4.5c0.1,1,0.3,2,0.6,2.9
				c1,2.8,2.1,5.5,3.4,8.1L56.4,66.2z"/>
		</g>
		<g>
			<path class="st0" d="M38.8,58.7c-1.7-3.5-2.9-7.2-3.9-10.9c0,0.8-0.1,1.5-0.2,2.3l-0.5,0.1c-2.1-4.1-4.1-8.4-5.9-12.6
				c-0.1,0.2-0.3,0.4-0.5,0.5l-0.3-0.5c0.3-0.2,0.5-0.7,0.4-1c0-0.1-0.1-0.1-0.1-0.2l0.5-0.2c0,0.1,0.1,0.2,0.1,0.3
				c1.9,4.3,3.9,8.6,5.9,12.8c0.2-1.5,0.1-3-0.2-4.5c-0.1-0.5-0.2-0.9-0.3-1.4l0.5-0.1c0.1,0.5,0.3,0.9,0.4,1.4
				c1.1,4.4,2.3,8.8,4.2,12.9c0.1-4.1-0.2-8.2-0.8-12.2l0.5-0.1c0.7,4.4,1,8.9,0.8,13.4L38.8,58.7z"/>
		</g>
		<g>
			<path class="st0" d="M62.3,48.7c-0.7-0.7-1.1-1.7-1.2-2.7c0-0.3,0-0.6,0-0.9c0-0.5,0.1-1-0.1-1.5l0.5-0.2
				c0.2,0.6,0.1,1.1,0.1,1.7c0,0.3,0,0.6,0,0.9c0,0.9,0.4,1.7,1,2.3L62.3,48.7z"/>
		</g>
		<g>
			<path class="st0" d="M55.9,47.4l-0.1-0.5l2.2-0.5c0.1,0,0.2,0,0.2-0.1c0,0,0.1-0.1,0.1-0.1c0.3-0.4,0.5-0.9,0.6-1.5l0.5,0
				c0,0.7-0.3,1.3-0.7,1.8c-0.1,0.1-0.1,0.2-0.3,0.2c-0.1,0.1-0.3,0.1-0.4,0.1L55.9,47.4z"/>
		</g>
		<g>
			<path class="st0" d="M56.6,23.1c-1.3-0.8-2.7-1.6-4.1-2.1c-1.1-0.3-2.3-0.4-3.4-0.5l-4.6-0.4L44.3,20c-0.1-0.1-0.1-0.2-0.1-0.3
				c0.1-0.2,0.2-0.3,0.4-0.3l0,0c2.5-0.6,5.1-0.7,7.8,0l0,0l0.2-0.5l0.3,0.1c1.2,0.3,2.6,0.7,2.9,1.3c0.1,0.2,0.1,0.4,0,0.5
				l-0.3,0.1c-0.3-0.1-0.6-0.2-0.9-0.3l2.4,2.1L56.6,23.1z M45.7,19.7l3.4,0.3c1.2,0.1,2.4,0.2,3.5,0.5c0.7,0.2,1.3,0.5,2,0.8
				l-1.3-1.2C50.6,19.4,48.1,19.2,45.7,19.7z M53.6,19.7c0.4,0.1,0.8,0.2,1.2,0.4C54.4,19.9,53.9,19.8,53.6,19.7L53.6,19.7z"/>
		</g>
		<g>
			<path class="st0" d="M66.7,25.8c-0.7,0-1.3-0.2-2-0.5l-2.6-0.9L62,24.1c0-0.1,0.1-0.3,0.2-0.3c0.2-0.2,0.5-0.2,0.7-0.2l1.4,0.1
				c-0.1,0-0.3-0.1-0.4-0.1l0.1-0.5c1,0.3,2.1,0.6,3.1,0.9l-0.1,0.5l-3.7-0.4l1.7,0.6c0.1,0,0.2,0.1,0.2,0.1l0.1-0.4l2.1,0.7l0,0.5
				C67.1,25.8,66.9,25.8,66.7,25.8z"/>
		</g>
		<g>
			<path class="st0" d="M53.5,65.1c-0.3-0.7-0.5-1.5-0.6-2.3l0-0.1c0-0.3-0.1-0.5-0.2-0.7c-0.1-0.2-0.3-0.4-0.4-0.6l-0.1-0.1
				c-0.9-1-1.4-2.3-1.9-3.6c-0.4-1.1-0.9-2.2-1.5-3.1c0,0.9,0.3,1.7,0.5,2.6c0.2,0.8,0.4,1.6,0.5,2.4c0.1,0.7,0,1.3,0,2
				c0,0.9-0.1,1.8,0.1,2.7l-0.5,0.1c-0.2-0.9-0.2-1.9-0.2-2.9c0-0.6,0.1-1.3,0-1.9c-0.1-0.8-0.3-1.5-0.5-2.3
				c-0.3-1.1-0.6-2.3-0.5-3.5l0.5-0.2c1,1.1,1.6,2.4,2.1,3.8c0.5,1.2,1,2.5,1.8,3.5l0.1,0.1c0.2,0.2,0.4,0.4,0.5,0.7
				c0.1,0.3,0.2,0.6,0.2,0.9l0,0.1c0.1,0.7,0.3,1.5,0.6,2.2L53.5,65.1z"/>
		</g>
		<g>
			<path class="st0" d="M40.9,60c-1.6-5-3.6-9.9-6.2-14.5c-0.3-0.6-0.6-1.1-1-1.7L31.1,39c-0.2,0.9-0.7,1.8-1.2,2.6
				c-0.4,0.7-0.9,1.5-1.1,2.3c-0.4,1.4,0,2.9,0.4,4.4c0.4,1.4,0.7,2.9,0.4,4.4L29,52.6c0.3-1.3-0.1-2.8-0.4-4.1
				c-0.4-1.5-0.8-3.1-0.3-4.7c0.2-0.9,0.7-1.6,1.2-2.4c0.6-1.1,1.2-2.1,1.2-3.2l0.5-0.1l3.1,5.5c0.3,0.6,0.6,1.1,1,1.7
				c2.6,4.6,4.6,9.6,6.2,14.6L40.9,60z"/>
		</g>
		<g>
			<path class="st0" d="M51.3,28.2c-0.4,0-0.8-0.1-1.2-0.2l-0.2-0.1c-3.2-0.9-4.3-1.4-5.8-2.1c-0.3-0.1-0.6-0.3-1-0.5l0.2-0.5
				c0.4,0.2,0.7,0.3,1,0.5c1.5,0.7,2.5,1.2,5.7,2.1l0.2,0.1c0.4,0.1,0.7,0.2,1,0.2c0,0,0,0,0,0c0.4,0,0.8-0.1,1.1-0.2
				c0.3-0.1,0.7-0.2,0.9-0.4c0.2-0.1,0.4-0.4,0.6-0.6c0.3-0.3,0.6-0.7,1.1-0.8l0.2,0.5c-0.3,0.1-0.6,0.4-0.9,0.7
				c-0.2,0.2-0.4,0.5-0.7,0.7c-0.3,0.2-0.7,0.3-1.1,0.4C52.2,28.1,51.7,28.2,51.3,28.2C51.3,28.2,51.3,28.2,51.3,28.2z"/>
		</g>
		<g>
			<path class="st0" d="M49.4,30.4c-0.2-0.3-0.4-0.6-0.6-1c0,0,0,0,0,0l-0.4,0.2c0,0-0.2-0.2-0.3-0.3c-0.3-0.2-0.6-0.5-0.6-0.7
				c-0.2-0.2-0.3-0.5-0.3-0.7l0,0c0-0.1-0.1-0.2-0.1-0.3l-0.1,0l0.1,1l-0.5,0.1L45.6,26l0.5-0.1l0.1,0.4l0.5-0.2
				c0.1,0.2,0.3,0.5,0.4,0.7l0.2,0l0,0.1l0.2,0.1c0,0.5,0.1,0.9,0.4,1.3l0,0.3c0-0.1,0-0.1,0-0.1c0,0,0,0.1,0.1,0.1l-0.2-0.8
				c-0.1-0.2-0.1-0.4-0.2-0.6l0.5-0.1l0.2,0.5c0.2,0.5,0.6,1,0.9,1.5c0.1,0.2,0.3,0.4,0.4,0.5c0,0,0,0,0.1-0.1L50,30
				c-0.1,0.1-0.1,0.2-0.1,0.2L49.4,30.4z"/>
		</g>
		<g>
			<path class="st0" d="M51.7,32.7l-0.2-0.3l0,0c0,0-0.1-0.1-0.1-0.2L50.3,30c-0.4-0.5-0.7-1.1-0.9-1.7l0.5-0.2l0.9,1.6
				c0,0.1,0.1,0.1,0.1,0.2c0.5,0.7,0.9,1.4,1.1,2.1l0.2,0.1c0,0.1-0.1,0.2,0,0.3L51.7,32.7z"/>
		</g>
		<g>
			<path class="st0" d="M51,31c-0.2-0.6,0.1-1.3,0.3-2c0.1-0.4,0.3-0.9,0.3-1.2l0.5,0c0,0.2,0,0.4,0.1,0.6l0.5-0.1
				c0.1,0.8,0.3,1,0.3,1c0,0,0.1,0,0.3-0.2c0.4-0.4,0.3-1.1,0.2-1.8c-0.2-0.3-0.3-0.7-0.2-1.1l0.5,0c0,0.1,0.1,0.2,0.1,0.4
				c0,0.2,0.1,0.4,0.1,0.6c0.1,0.1,0.2,0.2,0.3,0.4c0.1,0.1,0.2,0.2,0.3,0.4c0.1-0.3,0.1-0.6-0.1-1.1l0.5-0.2c0.2,0.7,0.1,1.1,0,1.5
				c0,0.2-0.1,0.4-0.1,0.6l-0.5,0c-0.1-0.2-0.1-0.4-0.3-0.6c0,0.5-0.1,0.9-0.5,1.2c-0.1,0.1-0.5,0.5-0.9,0.3c0,0-0.1,0-0.1-0.1
				c0,0.2,0,0.3,0,0.5l-0.5,0.1c-0.1-0.4-0.2-0.7-0.3-1.1c-0.2,0.6-0.4,1.2-0.3,1.6L51,31z"/>
		</g>
		<g>
			<polygon class="st0" points="49.8,30.3 49,27.8 49.5,27.7 50.3,30.1 			"/>
		</g>
		<g>
			<path class="st0" d="M49.5,26.6c-1.7,0-3.8-0.4-6.4-1.3l0.2-0.5c3.3,1.1,5.7,1.5,7.5,1.2l0.1,0.5C50.5,26.6,50,26.6,49.5,26.6z"
				/>
		</g>
		<g>
			<path class="st0" d="M66.4,31.9c-0.3-0.4-0.3-0.9-0.2-1.4c0-0.2-0.1-0.3-0.1-0.5c-0.1,0.1-0.2,0.1-0.3,0.2
				c-0.2,0.1-0.5,0.2-0.8,0.3c-0.3,0.1-0.5,0.2-0.8,0.3L64,30.3c0.2-0.1,0.4-0.2,0.6-0.3l0,0l-0.2-2.4c-0.2,0.4-0.3,0.8-0.3,1.2
				l-0.5,0c0-0.8,0.3-1.6,0.8-2.2l0.5,0.2l0.2,2.6c0.3-0.3,0.5-0.6,0.6-1l0.5,0c0,0.1,0.1,0.2,0.1,0.3c0,0,0-0.1,0-0.1l0.5-0.1
				c0.2,0.5,0.1,1.1,0,1.7c0,0.1,0,0.2-0.1,0.3c0.1,0.4,0.1,0.8,0.1,1.2L66.4,31.9z M65.9,29.3c0,0.1-0.1,0.2-0.2,0.2
				C65.8,29.5,65.9,29.4,65.9,29.3C65.9,29.3,65.9,29.3,65.9,29.3z"/>
		</g>
	</g>
	<g>
		<g>
			<g>
				<path class="st0" d="M23.4,12.2c0.1,0,0.1,0.1,0.1,0.2c0,0.1,0.1,0.2,0,0.3c0,0.1,0,0.3-0.1,0.4c0,0.2-0.1,0.3-0.2,0.5
					c0,0.1-0.1,0.2-0.1,0.3c0,0.1-0.1,0.2-0.2,0.4c0,0,0,0,0,0.1c0,0,0,0,0,0.1c-0.1,0.1-0.1,0.3-0.3,0.5c-0.1,0.2-0.3,0.5-0.4,0.9
					c-0.1,0.2-0.2,0.5-0.4,0.7c-0.1,0.3-0.3,0.6-0.5,0.9c-0.1,0.2-0.2,0.3-0.3,0.5c-0.1,0.2-0.2,0.4-0.4,0.6
					c-0.1,0.2-0.3,0.4-0.4,0.6c-0.2,0.2-0.3,0.4-0.5,0.6c-0.1,0.1-0.2,0.2-0.4,0.3c-0.1,0.1-0.2,0.2-0.4,0.3c-0.1,0-0.1,0.1-0.2,0.1
					c-0.1,0-0.2,0.1-0.3,0.1c-0.2,0.1-0.4,0.1-0.6,0.1c-0.2,0-0.4,0-0.6-0.1c-0.2-0.1-0.4-0.2-0.6-0.3c-0.2-0.1-0.3-0.3-0.4-0.4
					c-0.1-0.2-0.3-0.3-0.4-0.5l0,0c-0.1-0.2-0.3-0.4-0.4-0.7c-0.1-0.2-0.2-0.5-0.3-0.8c-0.1-0.1-0.1-0.3-0.2-0.4
					c-0.1-0.1-0.1-0.3-0.2-0.5c-0.1-0.4-0.3-0.9-0.4-1.4c-0.1-0.5-0.2-1-0.4-1.4c-0.1-0.3-0.1-0.5-0.2-0.8c-0.1-0.3-0.1-0.6-0.2-0.8
					c-0.1-0.3-0.1-0.6-0.2-0.9c-0.1-0.3-0.1-0.6-0.2-0.9c0-0.1,0-0.1,0-0.2c0,0,0-0.1,0-0.2c0,0.1,0,0.2,0,0.3c0,0.1,0,0.2-0.1,0.3
					c-0.1,0.7-0.3,1.5-0.5,2.2c-0.2,0.7-0.4,1.5-0.6,2.3c-0.2,0.8-0.4,1.6-0.7,2.4c-0.2,0.9-0.5,1.7-0.8,2.6
					c-0.1,0.3-0.2,0.6-0.3,0.8c-0.1,0.3-0.2,0.5-0.2,0.8l0,0c-0.1,0.2-0.1,0.5-0.2,0.7C10,23,9.9,23.2,9.8,23.4c0,0,0,0,0,0.1
					s0,0.1,0,0.1c0,0,0,0.1-0.1,0.2c0,0.1,0,0.1-0.1,0.2c-0.1,0-0.3,0-0.4-0.1c-0.1,0-0.2-0.1-0.2-0.1C9,23.7,9,23.6,9,23.6
					c0,0,0-0.1,0-0.1l-0.2,0.3c0,0,0,0,0,0c0,0,0,0,0,0l0-0.1l0-0.2c0,0,0-0.1,0-0.1c0,0,0-0.1,0-0.1c0-0.1,0-0.1,0-0.2
					c0-0.1,0-0.1,0-0.2l0,0c0-0.1,0-0.2,0-0.4c0-0.1,0-0.2,0-0.3l0-0.4c-0.1-0.7-0.2-1.3-0.2-1.9c-0.1-0.6-0.2-1.2-0.2-1.8
					c0-0.3-0.1-0.6-0.1-1c0-0.3-0.1-0.7-0.2-1.1c-0.1-0.4-0.1-0.8-0.2-1.3c-0.1-0.4-0.2-0.9-0.3-1.5c-0.1-0.5-0.2-1.1-0.3-1.7
					c-0.1-0.6-0.3-1.2-0.4-1.9l0,0C6.5,9.2,6.4,8.9,6.3,8.5C6.2,8.1,6.1,7.7,5.9,7.4L5.8,7.1C5.8,6.9,5.7,6.8,5.7,6.7
					C5.6,6.5,5.5,6.4,5.4,6.3l0,0c0-0.1-0.1-0.1-0.1-0.2C5.2,6,5.2,5.9,5.1,5.9C5.1,5.9,5,6,5,6C4.9,6.2,4.8,6.4,4.7,6.6
					C4.6,6.8,4.5,7,4.4,7.2C4.4,7.4,4.3,7.6,4.2,7.8C4.1,8,4.1,8.3,4,8.5C3.9,8.9,3.8,9.3,3.7,9.7c-0.1,0.4-0.2,0.8-0.3,1.2
					c-0.2,0.8-0.3,1.5-0.5,2.3c-0.1,0.7-0.3,1.4-0.4,2.1c-0.2,1.1-0.4,2.1-0.5,3.1c-0.1,1-0.3,1.8-0.4,2.6c0,0.1,0,0.2,0,0.3
					c0,0.1,0,0.2,0,0.3c-0.2,1.2-0.3,2.1-0.4,2.8c-0.1,0.7-0.1,1.2-0.2,1.6c0,0.3-0.1,0.4-0.1,0.5C1,26.6,1,26.8,1,26.9
					c0,0.2-0.1,0.3-0.2,0.4c-0.1,0.1-0.1,0.2-0.2,0.3c-0.1,0.1-0.1,0.1-0.2,0.1c-0.1,0-0.1,0-0.2-0.1c-0.1-0.1-0.1-0.2-0.1-0.3
					C0,27.1,0,27,0,26.8c0-0.2,0-0.3,0-0.5c0-0.1,0-0.2,0-0.3c0-0.1,0-0.3,0.1-0.5c0-0.2,0.1-0.5,0.1-0.9c0.1-0.4,0.1-0.8,0.2-1.4
					c0-0.1,0-0.2,0-0.3c0-0.1,0-0.2,0-0.3c0-0.1,0-0.2,0-0.3c0-0.1,0-0.2,0-0.4c0.1-0.7,0.2-1.4,0.4-2.3c0.1-0.9,0.3-1.9,0.5-3.1
					c0.1-0.7,0.3-1.4,0.4-2.2c0.2-0.8,0.3-1.7,0.5-2.6c0.1-0.5,0.2-0.9,0.3-1.4c0.1-0.5,0.2-1,0.4-1.5c0,0,0-0.1,0-0.1
					c0,0,0-0.1,0-0.1C3.3,8.4,3.4,8.2,3.5,8c0.1-0.2,0.1-0.5,0.2-0.7C3.8,7,3.9,6.7,4,6.4C4.1,6.3,4.2,6.2,4.2,6
					c0.1-0.1,0.2-0.3,0.3-0.4c0.1-0.1,0.1-0.1,0.2-0.2c0.1-0.1,0.1-0.1,0.2-0.1c0.1,0,0.2-0.1,0.4,0c0.1,0,0.2,0.1,0.3,0.1l0,0
					c0.1,0.1,0.2,0.2,0.3,0.3C6,5.8,6,6,6.1,6.1c0.1,0.2,0.2,0.4,0.3,0.7c0,0.1,0.1,0.2,0.1,0.4c0,0.1,0.1,0.3,0.1,0.4
					C6.8,8,6.9,8.4,7,8.9c0.1,0.4,0.2,0.8,0.3,1.3c0.2,0.8,0.3,1.6,0.5,2.2C8,13,8.1,13.7,8.2,14.3c0.1,0.6,0.2,1.1,0.3,1.7
					c0.1,0.5,0.2,1,0.2,1.4c0.1,0.4,0.1,0.9,0.2,1.3C9,19,9,19.4,9.1,19.8c0,0.3,0.1,0.7,0.2,1.1c0.1,0.4,0.1,0.7,0.2,1.1
					c0-0.1,0.1-0.3,0.1-0.4c0-0.1,0.1-0.3,0.1-0.4c0.2-0.6,0.4-1.2,0.6-1.9c0.2-0.7,0.5-1.5,0.7-2.3c0.3-0.9,0.5-1.7,0.8-2.5
					c0.2-0.8,0.4-1.5,0.6-2.1c0.1-0.3,0.2-0.6,0.2-0.9c0.1-0.3,0.1-0.6,0.2-0.9l0,0c0,0,0-0.1,0-0.1c0,0,0-0.1,0-0.1
					c0-0.1,0-0.2,0.1-0.3S13,9.7,13,9.6c0.1-0.1,0.2-0.2,0.3-0.2c0.1-0.1,0.3-0.1,0.5-0.1l0.1,0.1c0,0.1,0.1,0.2,0.1,0.4
					c0,0.1,0.1,0.2,0.1,0.3c0.1,0.2,0.1,0.5,0.2,0.7c0.1,0.2,0.1,0.5,0.2,0.7l0.1,0.6c0.1,0.4,0.2,0.7,0.2,1.1
					c0.1,0.4,0.2,0.8,0.3,1.2c0.1,0.6,0.3,1.2,0.4,1.7c0.2,0.5,0.3,1,0.5,1.5c0.2,0.4,0.3,0.8,0.5,1.1c0.1,0.3,0.3,0.5,0.5,0.8
					c0.2,0.2,0.4,0.4,0.6,0.5c0.1,0.1,0.2,0.1,0.3,0.1c0.1,0,0.2,0,0.3,0l0,0c0.1,0,0.2-0.1,0.3-0.1c0.1,0,0.2-0.1,0.3-0.1
					c0.2-0.1,0.3-0.3,0.5-0.4c0.2-0.2,0.3-0.3,0.4-0.4c0.1-0.2,0.2-0.3,0.3-0.5c0.1-0.2,0.2-0.3,0.3-0.5c0.2-0.3,0.3-0.6,0.5-0.8
					c0.1-0.3,0.3-0.5,0.4-0.7l0,0c0.2-0.4,0.4-0.7,0.5-1c0.1-0.3,0.2-0.5,0.3-0.7c0,0,0,0,0,0c0,0,0,0,0,0c0,0,0,0,0,0
					c0.1-0.2,0.2-0.4,0.3-0.7c0.1-0.2,0.2-0.4,0.3-0.7l0-0.1l0,0c0.1-0.2,0.1-0.3,0.2-0.5c0.1-0.1,0.2-0.2,0.3-0.3
					c0.1-0.1,0.2-0.2,0.3-0.2C23.3,12.2,23.3,12.2,23.4,12.2z"/>
			</g>
		</g>
		<g>
			<g>
				<path class="st0" d="M22.7,12.6c0.1-0.2,0.2-0.3,0.4-0.3c0.2-0.1,0.3-0.1,0.4,0c0.1,0.1,0.2,0.2,0.2,0.3c0,0.1,0,0.3-0.1,0.5
					l0,0c0,0,0,0,0,0.1c0,0,0,0,0,0c0,0,0,0,0,0c0,0-0.1,0.1-0.1,0.2c-0.1,0.1-0.1,0.2-0.2,0.4c-0.1,0.2-0.2,0.4-0.3,0.6
					c-0.1,0.2-0.3,0.6-0.4,0.9l0,0.1c-0.1,0.2-0.1,0.4-0.2,0.6c-0.1,0.2-0.1,0.5-0.2,0.7c-0.1,0.3-0.1,0.6-0.2,0.9
					c-0.1,0.3-0.1,0.7,0,1c0,0,0,0,0,0c0,0,0,0,0,0c0,0,0,0.1,0,0.1c0,0,0,0,0,0c0,0,0,0,0.1-0.1c0,0,0.1-0.1,0.1-0.1
					c0,0,0.1-0.1,0.1-0.1c0.2-0.1,0.3-0.3,0.5-0.5c0.2-0.2,0.3-0.4,0.5-0.6c0.2-0.2,0.3-0.4,0.5-0.7c0.2-0.2,0.3-0.5,0.5-0.7l0,0
					c0-0.1,0.1-0.1,0.1-0.2c0-0.1,0.1-0.1,0.1-0.2l0.1-0.2c0,0,0,0,0-0.1c0,0,0,0,0,0l0.1-0.1l0.4-0.1l0.2,0c0.1,0,0.1,0,0.2,0
					c0.1,0,0.2,0,0.2,0l0.1,0c0,0,0,0,0,0c0,0,0,0,0,0c0.2,0,0.3,0,0.5,0.1l0,0c0.5,0.1,0.9,0.1,1.2,0.1c0.3,0,0.6,0,0.8,0
					c0.2,0,0.5,0,0.7,0c0.2,0,0.5,0,0.7,0c0.2,0,0.5-0.1,0.8-0.1c0.3,0,0.6-0.1,1-0.2c0.1,0,0.1,0,0.2-0.1c0.1,0,0.2-0.1,0.2-0.1
					c0.1,0,0.2-0.1,0.4-0.2c0.1-0.1,0.3-0.1,0.4-0.2c0.2-0.1,0.4-0.3,0.7-0.5c0.2-0.2,0.5-0.4,0.7-0.6c0.5-0.5,0.9-1,1.3-1.5
					c0.4-0.5,0.7-0.9,0.9-1.3c0.3-0.4,0.5-0.8,0.7-1.1c0.2-0.3,0.4-0.6,0.5-0.9c0.2-0.4,0.4-0.7,0.5-1c0.1-0.3,0.2-0.4,0.2-0.6
					l0-0.1c0.1-0.2,0.2-0.3,0.3-0.3c0.1-0.1,0.3-0.1,0.4,0c0.1,0.1,0.2,0.2,0.3,0.3c0,0.2,0,0.3-0.1,0.5c0,0,0,0.1-0.1,0.1
					c0,0-0.1,0.1-0.1,0.2c0,0.1-0.1,0.2-0.2,0.3c-0.1,0.1-0.2,0.3-0.3,0.6c-0.1,0.2-0.3,0.5-0.5,0.8c-0.2,0.3-0.5,0.7-0.8,1.2
					c-0.1,0.2-0.3,0.5-0.5,0.7c-0.2,0.3-0.4,0.5-0.6,0.8c-0.2,0.3-0.5,0.6-0.7,0.9c-0.3,0.3-0.5,0.6-0.8,0.9
					c-0.3,0.3-0.6,0.6-0.9,0.8c-0.3,0.2-0.6,0.4-0.9,0.6c-0.2,0.1-0.4,0.2-0.6,0.3c-0.2,0.1-0.3,0.1-0.5,0.2
					c-0.2,0.1-0.3,0.1-0.4,0.1c-0.4,0.1-0.8,0.2-1.2,0.3c-0.3,0.1-0.7,0.1-1,0.1c-0.3,0-0.6,0-0.8,0.1c-0.3,0-0.6,0-0.9,0
					c-0.2,0-0.3,0-0.5,0c-0.2,0-0.4,0-0.6-0.1c-0.1,0-0.2,0-0.3,0c-0.1,0-0.2,0-0.3-0.1L25,16c-0.4,0.5-0.8,1-1.1,1.4
					c-0.3,0.4-0.6,0.7-0.9,1c-0.1,0.1-0.3,0.3-0.4,0.4c-0.1,0.1-0.3,0.3-0.4,0.4c-0.1,0.1-0.2,0.1-0.4,0.2c0,0-0.1,0-0.1,0
					c0,0-0.1,0-0.1,0l0,0c-0.2,0-0.3-0.1-0.3-0.2c0-0.1-0.1-0.1-0.1-0.2c0-0.1,0-0.1,0-0.2l0,0c0,0,0-0.1,0-0.1s0-0.1,0-0.2
					c0-0.4,0-0.7,0-1c0-0.3,0.1-0.6,0.1-0.8c0.1-0.3,0.1-0.5,0.2-0.7c0.1-0.2,0.1-0.4,0.2-0.6l0,0c0.1-0.3,0.2-0.6,0.3-0.9
					c0.1-0.2,0.2-0.5,0.2-0.6l0-0.1c0-0.1,0.1-0.1,0.1-0.2c0,0,0-0.1,0.1-0.1c0-0.1,0.1-0.2,0.1-0.3c0-0.1,0.1-0.2,0.1-0.2
					c0-0.1,0.1-0.1,0.1-0.2C22.6,12.7,22.7,12.7,22.7,12.6z"/>
			</g>
		</g>
		<g>
			<g>
				<path class="st0" d="M54.6,0.1c0.1,0.1,0.1,0.3,0,0.5c-0.1,0.2-0.2,0.4-0.4,0.7c-0.1,0.1-0.2,0.2-0.2,0.2
					c-0.1,0.1-0.2,0.2-0.3,0.3c-0.2,0.1-0.4,0.4-0.7,0.7c-0.3,0.3-0.6,0.6-1,1c-0.4,0.4-0.9,0.9-1.5,1.5l0,0
					c-0.1,0.1-0.2,0.2-0.3,0.3c-0.1,0.1-0.2,0.2-0.3,0.3c-0.6,0.6-1.2,1.3-2,2c-0.7,0.8-1.6,1.7-2.5,2.7c-0.6,0.6-1.2,1.3-1.8,2.1
					c-0.6,0.8-1.3,1.6-1.9,2.5c-0.3,0.4-0.6,0.9-0.9,1.4c-0.3,0.5-0.6,1-0.9,1.6c-0.3,0.6-0.6,1.1-0.8,1.8c-0.2,0.6-0.5,1.2-0.6,1.9
					c-0.2,0.8-0.3,1.5-0.4,2.1c-0.1,0.6-0.2,1.2-0.2,1.7l0,0.2c0,0.5-0.1,1-0.1,1.5c0,0.5-0.1,0.9-0.1,1.4c0,0.3,0,0.5,0,0.8
					c0,0.3,0,0.6,0,0.9c0,0.2,0,0.3,0,0.5c0,0.2,0,0.3,0,0.5c0,0,0,0.1,0,0.1c0,0,0,0,0,0.1c0,0,0,0,0,0.1c0,0,0,0,0,0l0,0
					c0,0,0,0,0,0.1c0,0,0,0,0,0.1l-0.3,0.3c0,0-0.1,0-0.1,0c-0.1,0-0.1,0-0.2,0l-0.2-0.2c0,0,0,0,0,0c0,0,0,0,0,0l0-0.1
					c0-0.1,0-0.2,0-0.3c0-0.1,0-0.2,0-0.3c-0.1-0.8-0.1-1.8-0.1-2.9c0-1.1,0-2.4,0.1-3.9c0.1-1.5,0.1-2.9,0.2-4.2
					c0.1-1.3,0.1-2.4,0.2-3.4c0.1-0.8,0.1-1.5,0.2-2.2c0-0.7,0.1-1.3,0.1-1.8l0,0c0-0.2,0-0.3,0-0.5c0-0.2,0-0.3,0-0.5
					c0.1-0.9,0.1-1.6,0.2-2.1c0-0.6,0.1-1,0.1-1.2c0-0.1,0-0.2,0-0.3c0-0.1,0-0.1,0-0.2c0-0.1,0-0.3,0.1-0.4c0-0.1,0.1-0.2,0.1-0.3
					C38,6.6,38,6.5,38.1,6.4c0.1-0.1,0.1-0.1,0.2-0.1c0.1,0,0.3,0.1,0.3,0.3c0.1,0.2,0.1,0.5,0.1,0.7c0,0,0,0,0,0.1
					c0,0.1,0,0.2,0,0.2c0,0.2-0.1,0.4-0.1,0.8c0,0.4-0.1,0.9-0.2,1.7c-0.1,0.5-0.1,1.2-0.2,2c-0.1,0.8-0.2,1.7-0.3,2.8
					c-0.1,0.9-0.2,1.9-0.3,3c-0.1,1.1-0.2,2.3-0.3,3.7l0.1-0.6c0.1-0.4,0.2-0.8,0.4-1.3c0.2-0.5,0.4-0.9,0.6-1.4
					c0.3-0.7,0.6-1.3,1-1.8c0.3-0.5,0.6-1,0.9-1.5c0.3-0.4,0.6-0.8,0.9-1.2c0.3-0.4,0.5-0.7,0.8-1c0.2-0.3,0.5-0.6,0.7-0.9
					c0.2-0.3,0.5-0.6,0.7-0.9c0.2-0.3,0.5-0.6,0.7-0.9c0.2-0.3,0.5-0.6,0.8-0.9c0.8-0.9,1.6-1.8,2.3-2.5c0.7-0.7,1.3-1.3,1.8-1.9
					c0,0,0.1-0.1,0.1-0.1s0.1-0.1,0.1-0.1c0.5-0.6,1-1.1,1.4-1.5s0.7-0.7,1-1C51.8,2.2,52,2,52.1,1.9c0.2-0.2,0.3-0.3,0.4-0.4
					c0.2-0.2,0.3-0.3,0.5-0.5c0.1-0.1,0.3-0.3,0.4-0.5c0.2-0.2,0.4-0.4,0.6-0.4C54.3,0,54.5,0,54.6,0.1z"/>
				<path class="st0" d="M36.9,31.7C36.8,31.7,36.8,31.7,36.9,31.7L36.9,31.7z"/>
			</g>
		</g>
	</g>
</g>
</svg>
